<mxfile host="app.diagrams.net" modified="2024-06-19T05:48:57.102Z" agent="Mozilla/5.0 (Windows NT 10.0; Win64; x64) AppleWebKit/537.36 (KHTML, like Gecko) Chrome/126.0.0.0 Safari/537.36" version="24.5.5" etag="w7wvbWtvrWbgTIrpLY6f" type="github">
  <diagram name="페이지-1" id="JK24adZlCjmQQ-31-Lel">
    <mxGraphModel>
      <root>
        <mxCell id="0" />
        <mxCell id="1" parent="0" />
      </root>
    </mxGraphModel>
  </diagram>
</mxfile>
